<?xml version="1.0" encoding="UTF-8"?>
<svg width="960" height="640" xmlns="http://www.w3.org/2000/svg" xmlns:svg="http://www.w3.org/2000/svg" xmlns:xlink="http://www.w3.org/1999/xlink">
 <title>admin</title>
 <g>
  <title>Layer 1</title>
  <g id="svg_1">
   <g id="svg_2">
    <g id="svg_3">
     <g id="svg_4">
      <g id="svg_5">
       <g id="svg_6">
        <defs>
         <path d="m712,368c-8,-8 -13.3,-18.7 -13.3,-29.3l0,-37.3c0,-10.7 5.3,-22.7 13.3,-29.3l40,-36c6.7,-6.7 9.3,-16 4,-25.3l-42.7,-74.8c-5.3,-8 -14.7,-12 -24,-9.3l-50.7,16c-10.7,4 -22.7,2.7 -32,-4l-32,-18.7c-9.3,-5.3 -17.3,-14.7 -18.7,-26.7l-12,-52c-1.3,-9.3 -9.3,-16 -20,-16l-86.7,0c-9.3,0 -17.3,6.7 -20,16l-12,52c-2.7,10.7 -9.3,21.3 -18.7,26.7l-32,18.7c-9.3,5.3 -21.3,6.7 -32,4l-50.7,-16c-9.3,-2.7 -18.7,1.3 -24,9.3l-42.7,74.7c-5.3,8 -2.7,18.7 4,25.3l40,36c8,8 13.3,18.7 13.3,29.3l0,37.3c0,10.7 -4,22.7 -13.3,29.3l-40,36c-6.7,6.7 -9.3,16 -4,25.3l42.9,74.8c5.3,8 14.7,12 24,9.3l50.7,-16c10.7,-4 22.7,-2.7 32,4l32,18.7c9.3,5.3 17.3,14.7 18.7,26.7l8,34.7l0,13.3c0,10.7 9.3,20 20,20l93.3,0c10.7,0 20,-9.3 20,-20l0,-13.3l8,-34.7c2.7,-10.7 9.3,-20 18.7,-26.7l32,-18.7c9.3,-5.3 21.3,-6.7 32,-4l50.7,16c9.3,2.7 18.7,-1.3 24,-9.3l42.7,-74.7c5.3,-8 2.7,-18.7 -4,-25.3l-38.8,-36z" id="SVGID_1_"/>
        </defs>
        <clipPath id="SVGID_2_">
         <use id="svg_7" xlink:href="#SVGID_1_"/>
        </clipPath>
        <path id="svg_8" d="m712,368c-8,-8 -13.3,-18.7 -13.3,-29.3l0,-37.3c0,-10.7 5.3,-22.7 13.3,-29.3l40,-36c6.7,-6.7 9.3,-16 4,-25.3l-42.7,-74.8c-5.3,-8 -14.7,-12 -24,-9.3l-50.7,16c-10.7,4 -22.7,2.7 -32,-4l-32,-18.7c-9.3,-5.3 -17.3,-14.7 -18.7,-26.7l-12,-52c-1.3,-9.3 -9.3,-16 -20,-16l-86.7,0c-9.3,0 -17.3,6.7 -20,16l-12,52c-2.7,10.7 -9.3,21.3 -18.7,26.7l-32,18.7c-9.3,5.3 -21.3,6.7 -32,4l-50.7,-16c-9.3,-2.7 -18.7,1.3 -24,9.3l-42.7,74.7c-5.3,8 -2.7,18.7 4,25.3l40,36c8,8 13.3,18.7 13.3,29.3l0,37.3c0,10.7 -4,22.7 -13.3,29.3l-40,36c-6.7,6.7 -9.3,16 -4,25.3l42.9,74.8c5.3,8 14.7,12 24,9.3l50.7,-16c10.7,-4 22.7,-2.7 32,4l32,18.7c9.3,5.3 17.3,14.7 18.7,26.7l12,53.3c1.3,9.3 9.3,16 20,16l86.6,0c9.3,0 17.3,-6.7 20,-16l12,-53.3c2.7,-10.7 9.3,-20 18.7,-26.7l32,-18.7c9.3,-5.3 21.3,-6.7 32,-4l50.7,16c9.3,2.7 18.7,-1.3 24,-9.3l42.7,-74.7c5.3,-8 2.7,-18.7 -4,-25.3l-40.1,-36z" fill="#4285F4" clip-path="url(#SVGID_2_)"/>
       </g>
      </g>
     </g>
     <g id="svg_9">
      <g id="svg_10">
       <g id="svg_11">
        <defs>
         <path d="m712,368c-8,-8 -13.3,-18.7 -13.3,-29.3l0,-37.3c0,-10.7 5.3,-22.7 13.3,-29.3l40,-36c6.7,-6.7 9.3,-16 4,-25.3l-42.7,-74.8c-5.3,-8 -14.7,-12 -24,-9.3l-50.7,16c-10.7,4 -22.7,2.7 -32,-4l-32,-18.7c-9.3,-5.3 -17.3,-14.7 -18.7,-26.7l-12,-52c-1.3,-9.3 -9.3,-16 -20,-16l-86.7,0c-9.3,0 -17.3,6.7 -20,16l-12,52c-2.7,10.7 -9.3,21.3 -18.7,26.7l-32,18.7c-9.3,5.3 -21.3,6.7 -32,4l-50.7,-16c-9.3,-2.7 -18.7,1.3 -24,9.3l-42.7,74.7c-5.3,8 -2.7,18.7 4,25.3l40,36c8,8 13.3,18.7 13.3,29.3l0,37.3c0,10.7 -4,22.7 -13.3,29.3l-40,36c-6.7,6.7 -9.3,16 -4,25.3l42.9,74.8c5.3,8 14.7,12 24,9.3l50.7,-16c10.7,-4 22.7,-2.7 32,4l32,18.7c9.3,5.3 17.3,14.7 18.7,26.7l8,34.7l0,13.3c0,10.7 9.3,20 20,20l93.3,0c10.7,0 20,-9.3 20,-20l0,-13.3l8,-34.7c2.7,-10.7 9.3,-20 18.7,-26.7l32,-18.7c9.3,-5.3 21.3,-6.7 32,-4l50.7,16c9.3,2.7 18.7,-1.3 24,-9.3l42.7,-74.7c5.3,-8 2.7,-18.7 -4,-25.3l-38.8,-36z" id="SVGID_3_"/>
        </defs>
        <clipPath id="SVGID_4_">
         <use id="svg_12" xlink:href="#SVGID_3_"/>
        </clipPath>
        <linearGradient y2="0.500028" x2="0.99792" y1="0.500028" x1="-0.008255" id="SVGID_5_">
         <stop stop-color="#1A237E" stop-opacity="0.2" offset="0"/>
         <stop stop-color="#1A237E" stop-opacity="0.02" offset="1"/>
        </linearGradient>
        <polygon id="svg_13" points="584,216 546.7,450.7 546.7,613.3 773.3,613.3 773.3,405.3               " fill="url(#SVGID_5_)" clip-path="url(#SVGID_4_)"/>
       </g>
      </g>
     </g>
     <g id="svg_14">
      <g id="svg_15">
       <g id="svg_16">
        <defs>
         <path d="m712,368c-8,-8 -13.3,-18.7 -13.3,-29.3l0,-37.3c0,-10.7 5.3,-22.7 13.3,-29.3l40,-36c6.7,-6.7 9.3,-16 4,-25.3l-42.7,-74.8c-5.3,-8 -14.7,-12 -24,-9.3l-50.7,16c-10.7,4 -22.7,2.7 -32,-4l-32,-18.7c-9.3,-5.3 -17.3,-14.7 -18.7,-26.7l-12,-52c-1.3,-9.3 -9.3,-16 -20,-16l-86.7,0c-9.3,0 -17.3,6.7 -20,16l-12,52c-2.7,10.7 -9.3,21.3 -18.7,26.7l-32,18.7c-9.3,5.3 -21.3,6.7 -32,4l-50.7,-16c-9.3,-2.7 -18.7,1.3 -24,9.3l-42.7,74.7c-5.3,8 -2.7,18.7 4,25.3l40,36c8,8 13.3,18.7 13.3,29.3l0,37.3c0,10.7 -4,22.7 -13.3,29.3l-40,36c-6.7,6.7 -9.3,16 -4,25.3l42.9,74.8c5.3,8 14.7,12 24,9.3l50.7,-16c10.7,-4 22.7,-2.7 32,4l32,18.7c9.3,5.3 17.3,14.7 18.7,26.7l8,34.7l0,13.3c0,10.7 9.3,20 20,20l93.3,0c10.7,0 20,-9.3 20,-20l0,-13.3l8,-34.7c2.7,-10.7 9.3,-20 18.7,-26.7l32,-18.7c9.3,-5.3 21.3,-6.7 32,-4l50.7,16c9.3,2.7 18.7,-1.3 24,-9.3l42.7,-74.7c5.3,-8 2.7,-18.7 -4,-25.3l-38.8,-36z" id="SVGID_6_"/>
        </defs>
        <clipPath id="SVGID_7_">
         <use id="svg_17" xlink:href="#SVGID_6_"/>
        </clipPath>
        <path id="svg_18" d="m480,466.7c-80,0 -145.3,-65.3 -146.7,-145.3l0,1.3c0,81.3 65.3,146.7 146.7,146.7s146.7,-65.4 146.7,-146.7c0,-1.3 0,-1.3 0,-1.3c-1.4,79.9 -66.7,145.3 -146.7,145.3z" fill-opacity="0.1" fill="#1A237E" clip-path="url(#SVGID_7_)"/>
       </g>
      </g>
     </g>
     <g id="svg_19">
      <g id="svg_20">
       <g id="svg_21">
        <defs>
         <path d="m712,368c-8,-8 -13.3,-18.7 -13.3,-29.3l0,-37.3c0,-10.7 5.3,-22.7 13.3,-29.3l40,-36c6.7,-6.7 9.3,-16 4,-25.3l-42.7,-74.8c-5.3,-8 -14.7,-12 -24,-9.3l-50.7,16c-10.7,4 -22.7,2.7 -32,-4l-32,-18.7c-9.3,-5.3 -17.3,-14.7 -18.7,-26.7l-12,-52c-1.3,-9.3 -9.3,-16 -20,-16l-86.7,0c-9.3,0 -17.3,6.7 -20,16l-12,52c-2.7,10.7 -9.3,21.3 -18.7,26.7l-32,18.7c-9.3,5.3 -21.3,6.7 -32,4l-50.7,-16c-9.3,-2.7 -18.7,1.3 -24,9.3l-42.7,74.7c-5.3,8 -2.7,18.7 4,25.3l40,36c8,8 13.3,18.7 13.3,29.3l0,37.3c0,10.7 -4,22.7 -13.3,29.3l-40,36c-6.7,6.7 -9.3,16 -4,25.3l42.9,74.8c5.3,8 14.7,12 24,9.3l50.7,-16c10.7,-4 22.7,-2.7 32,4l32,18.7c9.3,5.3 17.3,14.7 18.7,26.7l8,34.7l0,13.3c0,10.7 9.3,20 20,20l93.3,0c10.7,0 20,-9.3 20,-20l0,-13.3l8,-34.7c2.7,-10.7 9.3,-20 18.7,-26.7l32,-18.7c9.3,-5.3 21.3,-6.7 32,-4l50.7,16c9.3,2.7 18.7,-1.3 24,-9.3l42.7,-74.7c5.3,-8 2.7,-18.7 -4,-25.3l-38.8,-36z" id="SVGID_8_"/>
        </defs>
        <clipPath id="SVGID_9_">
         <use id="svg_22" xlink:href="#SVGID_8_"/>
        </clipPath>
        <path id="svg_23" d="m208,404c-5.3,4 -6.7,10.7 -6.7,16c0,-5.3 2.7,-9.3 6.7,-13.3l40,-36c8,-8 13.3,-18.7 13.3,-29.3l0,-2.7c0,10.7 -4,22.7 -13.3,29.3l-40,36zm544,0l-40,-36c-8,-8 -13.3,-18.7 -13.3,-29.3l0,2.7c0,10.7 5.3,22.7 13.3,29.3l40,36c4,4 6.7,8 6.7,13.3c0,-5.3 -2.7,-12 -6.7,-16zm-40,-265.3l42.7,74.7c1.3,2.7 2.7,5.3 2.7,8c0,-4 0,-8 -2.7,-12l-42.7,-74.7c-5.3,-8 -14.7,-12 -24,-9.3l-50.7,16c-10.7,4 -22.7,2.7 -32,-4l-32,-18.7c-9.3,-5.4 -17.3,-14.7 -18.6,-26.7l-12,-53.3c-1.3,-9.3 -9.3,-16 -20,-16l-86.7,0c-9.3,0 -17.3,6.7 -20,16l-12,52c-2.7,10.7 -9.3,21.3 -18.7,26.7l-32,18.7c-9.3,5.3 -21.3,6.7 -32,4l-50.7,-16c-9.3,-2.7 -18.7,1.3 -24,9.3l-42.6,74.6c-2.7,4 -2.7,8 -2.7,12c0,-2.7 1.3,-5.3 2.7,-8l42.7,-74.7c5.3,-8 14.7,-12 24,-9.3l50.7,16c10.7,4 22.7,2.7 32,-4l32,-18.7c9.3,-5.3 17.3,-14.7 18.7,-26.7l12,-52c1.3,-9.3 9.3,-16 20,-16l86.7,0c9.3,0 17.3,6.7 20,16l12,52c2.7,10.7 9.3,21.3 18.7,26.7l32,18.7c9.3,5.3 21.3,6.7 32,4l50.7,-16c9.1,-1.3 19.8,2.7 23.8,10.7z" fill-opacity="0.2" fill="#FFFFFF" clip-path="url(#SVGID_9_)"/>
       </g>
      </g>
     </g>
     <g id="svg_24">
      <g id="svg_25">
       <g id="svg_26">
        <defs>
         <path d="m712,368c-8,-8 -13.3,-18.7 -13.3,-29.3l0,-37.3c0,-10.7 5.3,-22.7 13.3,-29.3l40,-36c6.7,-6.7 9.3,-16 4,-25.3l-42.7,-74.8c-5.3,-8 -14.7,-12 -24,-9.3l-50.7,16c-10.7,4 -22.7,2.7 -32,-4l-32,-18.7c-9.3,-5.3 -17.3,-14.7 -18.7,-26.7l-12,-52c-1.3,-9.3 -9.3,-16 -20,-16l-86.7,0c-9.3,0 -17.3,6.7 -20,16l-12,52c-2.7,10.7 -9.3,21.3 -18.7,26.7l-32,18.7c-9.3,5.3 -21.3,6.7 -32,4l-50.7,-16c-9.3,-2.7 -18.7,1.3 -24,9.3l-42.7,74.7c-5.3,8 -2.7,18.7 4,25.3l40,36c8,8 13.3,18.7 13.3,29.3l0,37.3c0,10.7 -4,22.7 -13.3,29.3l-40,36c-6.7,6.7 -9.3,16 -4,25.3l42.9,74.8c5.3,8 14.7,12 24,9.3l50.7,-16c10.7,-4 22.7,-2.7 32,4l32,18.7c9.3,5.3 17.3,14.7 18.7,26.7l8,34.7l0,13.3c0,10.7 9.3,20 20,20l93.3,0c10.7,0 20,-9.3 20,-20l0,-13.3l8,-34.7c2.7,-10.7 9.3,-20 18.7,-26.7l32,-18.7c9.3,-5.3 21.3,-6.7 32,-4l50.7,16c9.3,2.7 18.7,-1.3 24,-9.3l42.7,-74.7c5.3,-8 2.7,-18.7 -4,-25.3l-38.8,-36z" id="SVGID_10_"/>
        </defs>
        <clipPath id="SVGID_11_">
         <use id="svg_27" xlink:href="#SVGID_10_"/>
        </clipPath>
        <path id="svg_28" d="m248,272c8,8 13.3,18.7 13.3,29.3l0,-2.7c0,-10.7 -4,-22.7 -13.3,-29.3l-40,-36c-4,-4 -6.7,-8 -6.7,-13.3c0,6.7 1.3,12 6.7,16l40,36zm510.7,-53.3c0,5.3 -2.7,9.3 -6.7,13.3l-40,36c-8,8 -13.3,18.7 -13.3,29.3l0,2.7c0,-10.7 5.3,-22.7 13.3,-29.3l40,-36c4,-2.7 6.7,-9.4 6.7,-16zm-69.4,290.6l-50.7,-16c-10.7,-4 -22.7,-2.7 -32,4l-32,18.7c-9.3,5.3 -17.3,14.7 -18.7,26.7l-10.6,53.3c-1.3,9.3 -9.3,16 -20,16l-86.7,0c-9.3,0 -17.3,-6.7 -20,-16l-12,-53.3c-2.7,-10.7 -9.3,-20 -18.7,-26.7l-32,-18.7c-9.3,-5.3 -21.3,-6.7 -32,-4l-50.7,16c-9.3,2.7 -18.7,-1.3 -24,-9.3l-42.7,-74.7c-1.3,-2.7 -2.7,-5.3 -2.7,-8c0,4 0,8 2.7,12l42.7,74.7c5.3,8 14.7,12 24,9.3l50.7,-16c10.7,-4 22.7,-2.7 32,4l32,18.7c9.3,5.3 17.3,14.7 18.7,26.7l12,53.3c1.3,9.3 9.3,16 20,16l86.7,0c9.3,0 17.3,-6.7 20,-16l12,-53.3c2.7,-10.7 9.3,-20 18.7,-26.7l32,-18.7c9.3,-5.3 21.3,-6.7 32,-4l50.7,16c9.3,2.7 18.7,-1.3 24,-9.3l42.7,-74.7c2.7,-4 2.7,-8 2.7,-12c0,2.7 -1.3,5.3 -2.7,8l-42.7,74.7c-6.7,9.3 -17.4,13.3 -25.4,9.3z" fill-opacity="0.2" fill="#263238" clip-path="url(#SVGID_11_)"/>
       </g>
      </g>
     </g>
     <g id="svg_29">
      <g id="svg_30">
       <g id="svg_31">
        <defs>
         <path d="m712,368c-8,-8 -13.3,-18.7 -13.3,-29.3l0,-37.3c0,-10.7 5.3,-22.7 13.3,-29.3l40,-36c6.7,-6.7 9.3,-16 4,-25.3l-42.7,-74.8c-5.3,-8 -14.7,-12 -24,-9.3l-50.7,16c-10.7,4 -22.7,2.7 -32,-4l-32,-18.7c-9.3,-5.3 -17.3,-14.7 -18.7,-26.7l-12,-52c-1.3,-9.3 -9.3,-16 -20,-16l-86.7,0c-9.3,0 -17.3,6.7 -20,16l-12,52c-2.7,10.7 -9.3,21.3 -18.7,26.7l-32,18.7c-9.3,5.3 -21.3,6.7 -32,4l-50.7,-16c-9.3,-2.7 -18.7,1.3 -24,9.3l-42.7,74.7c-5.3,8 -2.7,18.7 4,25.3l40,36c8,8 13.3,18.7 13.3,29.3l0,37.3c0,10.7 -4,22.7 -13.3,29.3l-40,36c-6.7,6.7 -9.3,16 -4,25.3l42.9,74.8c5.3,8 14.7,12 24,9.3l50.7,-16c10.7,-4 22.7,-2.7 32,4l32,18.7c9.3,5.3 17.3,14.7 18.7,26.7l8,34.7l0,13.3c0,10.7 9.3,20 20,20l93.3,0c10.7,0 20,-9.3 20,-20l0,-13.3l8,-34.7c2.7,-10.7 9.3,-20 18.7,-26.7l32,-18.7c9.3,-5.3 21.3,-6.7 32,-4l50.7,16c9.3,2.7 18.7,-1.3 24,-9.3l42.7,-74.7c5.3,-8 2.7,-18.7 -4,-25.3l-38.8,-36z" id="SVGID_12_"/>
        </defs>
        <clipPath id="SVGID_13_">
         <use id="svg_32" xlink:href="#SVGID_12_"/>
        </clipPath>
        <path id="svg_33" d="m712,368c-8,-8 -13.3,-18.7 -13.3,-29.3l0,-37.3c0,-10.7 5.3,-22.7 13.3,-29.3l40,-36c6.7,-6.7 9.3,-16 4,-25.3l-42.7,-74.8c-5.3,-8 -14.7,-12 -24,-9.3l-50.7,16c-10.7,4 -22.7,2.7 -32,-4l-32,-18.7c-9.3,-5.3 -17.3,-14.7 -18.7,-26.7l-12,-52c-1.3,-9.3 -9.3,-16 -20,-16l-86.7,0c-9.3,0 -17.3,6.7 -20,16l-12,52c-2.7,10.7 -9.3,21.3 -18.7,26.7l-32,18.7c-9.3,5.3 -21.3,6.7 -32,4l-50.7,-16c-9.3,-2.7 -18.7,1.3 -24,9.3l-42.7,74.7c-5.3,8 -2.7,18.7 4,25.3l40,36c8,8 13.3,18.7 13.3,29.3l0,37.3c0,10.7 -4,22.7 -13.3,29.3l-40,36c-6.7,6.7 -9.3,16 -4,25.3l42.9,74.8c5.3,8 14.7,12 24,9.3l50.7,-16c10.7,-4 22.7,-2.7 32,4l32,18.7c9.3,5.3 17.3,14.7 18.7,26.7l12,53.3c1.3,9.3 9.3,16 20,16l86.6,0c9.3,0 17.3,-6.7 20,-16l12,-53.3c2.7,-10.7 9.3,-20 18.7,-26.7l32,-18.7c9.3,-5.3 21.3,-6.7 32,-4l50.7,16c9.3,2.7 18.7,-1.3 24,-9.3l42.7,-74.7c5.3,-8 2.7,-18.7 -4,-25.3l-40.1,-36z" fill="none" clip-path="url(#SVGID_13_)"/>
       </g>
      </g>
     </g>
     <g id="svg_34">
      <g id="svg_35">
       <g id="svg_36">
        <defs>
         <path d="m712,368c-8,-8 -13.3,-18.7 -13.3,-29.3l0,-37.3c0,-10.7 5.3,-22.7 13.3,-29.3l40,-36c6.7,-6.7 9.3,-16 4,-25.3l-42.7,-74.8c-5.3,-8 -14.7,-12 -24,-9.3l-50.7,16c-10.7,4 -22.7,2.7 -32,-4l-32,-18.7c-9.3,-5.3 -17.3,-14.7 -18.7,-26.7l-12,-52c-1.3,-9.3 -9.3,-16 -20,-16l-86.7,0c-9.3,0 -17.3,6.7 -20,16l-12,52c-2.7,10.7 -9.3,21.3 -18.7,26.7l-32,18.7c-9.3,5.3 -21.3,6.7 -32,4l-50.7,-16c-9.3,-2.7 -18.7,1.3 -24,9.3l-42.7,74.7c-5.3,8 -2.7,18.7 4,25.3l40,36c8,8 13.3,18.7 13.3,29.3l0,37.3c0,10.7 -4,22.7 -13.3,29.3l-40,36c-6.7,6.7 -9.3,16 -4,25.3l42.9,74.8c5.3,8 14.7,12 24,9.3l50.7,-16c10.7,-4 22.7,-2.7 32,4l32,18.7c9.3,5.3 17.3,14.7 18.7,26.7l8,34.7l0,13.3c0,10.7 9.3,20 20,20l93.3,0c10.7,0 20,-9.3 20,-20l0,-13.3l8,-34.7c2.7,-10.7 9.3,-20 18.7,-26.7l32,-18.7c9.3,-5.3 21.3,-6.7 32,-4l50.7,16c9.3,2.7 18.7,-1.3 24,-9.3l42.7,-74.7c5.3,-8 2.7,-18.7 -4,-25.3l-38.8,-36z" id="SVGID_14_"/>
        </defs>
        <clipPath id="SVGID_15_">
         <use id="svg_37" xlink:href="#SVGID_14_"/>
        </clipPath>
        <rect id="svg_38" height="640" width="640" fill="none" clip-path="url(#SVGID_15_)" x="160"/>
       </g>
      </g>
     </g>
     <g id="svg_39">
      <g id="svg_40">
       <g id="svg_41">
        <defs>
         <path d="m712,368c-8,-8 -13.3,-18.7 -13.3,-29.3l0,-37.3c0,-10.7 5.3,-22.7 13.3,-29.3l40,-36c6.7,-6.7 9.3,-16 4,-25.3l-42.7,-74.8c-5.3,-8 -14.7,-12 -24,-9.3l-50.7,16c-10.7,4 -22.7,2.7 -32,-4l-32,-18.7c-9.3,-5.3 -17.3,-14.7 -18.7,-26.7l-12,-52c-1.3,-9.3 -9.3,-16 -20,-16l-86.7,0c-9.3,0 -17.3,6.7 -20,16l-12,52c-2.7,10.7 -9.3,21.3 -18.7,26.7l-32,18.7c-9.3,5.3 -21.3,6.7 -32,4l-50.7,-16c-9.3,-2.7 -18.7,1.3 -24,9.3l-42.7,74.7c-5.3,8 -2.7,18.7 4,25.3l40,36c8,8 13.3,18.7 13.3,29.3l0,37.3c0,10.7 -4,22.7 -13.3,29.3l-40,36c-6.7,6.7 -9.3,16 -4,25.3l42.9,74.8c5.3,8 14.7,12 24,9.3l50.7,-16c10.7,-4 22.7,-2.7 32,4l32,18.7c9.3,5.3 17.3,14.7 18.7,26.7l8,34.7l0,13.3c0,10.7 9.3,20 20,20l93.3,0c10.7,0 20,-9.3 20,-20l0,-13.3l8,-34.7c2.7,-10.7 9.3,-20 18.7,-26.7l32,-18.7c9.3,-5.3 21.3,-6.7 32,-4l50.7,16c9.3,2.7 18.7,-1.3 24,-9.3l42.7,-74.7c5.3,-8 2.7,-18.7 -4,-25.3l-38.8,-36z" id="SVGID_16_"/>
        </defs>
        <clipPath id="SVGID_17_">
         <use id="svg_42" xlink:href="#SVGID_16_"/>
        </clipPath>
        <linearGradient y2="0.499968" x2="0.999703" y1="0.499968" x1="0.000206" id="SVGID_18_">
         <stop stop-color="#1A237E" stop-opacity="0.2" offset="0"/>
         <stop stop-color="#1A237E" stop-opacity="0.02" offset="1"/>
        </linearGradient>
        <polygon id="svg_43" points="413.3,189.3 413.3,346.7 546.7,346.7 546.7,322.7               " fill="url(#SVGID_18_)" clip-path="url(#SVGID_17_)"/>
       </g>
      </g>
     </g>
     <g id="svg_44">
      <g id="svg_45">
       <g id="svg_46">
        <defs>
         <path d="m712,368c-8,-8 -13.3,-18.7 -13.3,-29.3l0,-37.3c0,-10.7 5.3,-22.7 13.3,-29.3l40,-36c6.7,-6.7 9.3,-16 4,-25.3l-42.7,-74.8c-5.3,-8 -14.7,-12 -24,-9.3l-50.7,16c-10.7,4 -22.7,2.7 -32,-4l-32,-18.7c-9.3,-5.3 -17.3,-14.7 -18.7,-26.7l-12,-52c-1.3,-9.3 -9.3,-16 -20,-16l-86.7,0c-9.3,0 -17.3,6.7 -20,16l-12,52c-2.7,10.7 -9.3,21.3 -18.7,26.7l-32,18.7c-9.3,5.3 -21.3,6.7 -32,4l-50.7,-16c-9.3,-2.7 -18.7,1.3 -24,9.3l-42.7,74.7c-5.3,8 -2.7,18.7 4,25.3l40,36c8,8 13.3,18.7 13.3,29.3l0,37.3c0,10.7 -4,22.7 -13.3,29.3l-40,36c-6.7,6.7 -9.3,16 -4,25.3l42.9,74.8c5.3,8 14.7,12 24,9.3l50.7,-16c10.7,-4 22.7,-2.7 32,4l32,18.7c9.3,5.3 17.3,14.7 18.7,26.7l8,34.7l0,13.3c0,10.7 9.3,20 20,20l93.3,0c10.7,0 20,-9.3 20,-20l0,-13.3l8,-34.7c2.7,-10.7 9.3,-20 18.7,-26.7l32,-18.7c9.3,-5.3 21.3,-6.7 32,-4l50.7,16c9.3,2.7 18.7,-1.3 24,-9.3l42.7,-74.7c5.3,-8 2.7,-18.7 -4,-25.3l-38.8,-36z" id="SVGID_19_"/>
        </defs>
        <clipPath id="SVGID_20_">
         <use id="svg_47" xlink:href="#SVGID_19_"/>
        </clipPath>
        <g id="svg_48" clip-path="url(#SVGID_20_)">
         <g id="svg_49">
          <path id="svg_50" d="m433.3,613.3l93.3,0c10.7,0 20,-9.3 20,-20l0,-153.3l-133.3,0l0,153.3c0,10.7 9.4,20 20,20z" fill="#F4B400"/>
         </g>
        </g>
       </g>
      </g>
     </g>
     <g id="svg_51">
      <g id="svg_52">
       <g id="svg_53">
        <defs>
         <path d="m712,368c-8,-8 -13.3,-18.7 -13.3,-29.3l0,-37.3c0,-10.7 5.3,-22.7 13.3,-29.3l40,-36c6.7,-6.7 9.3,-16 4,-25.3l-42.7,-74.8c-5.3,-8 -14.7,-12 -24,-9.3l-50.7,16c-10.7,4 -22.7,2.7 -32,-4l-32,-18.7c-9.3,-5.3 -17.3,-14.7 -18.7,-26.7l-12,-52c-1.3,-9.3 -9.3,-16 -20,-16l-86.7,0c-9.3,0 -17.3,6.7 -20,16l-12,52c-2.7,10.7 -9.3,21.3 -18.7,26.7l-32,18.7c-9.3,5.3 -21.3,6.7 -32,4l-50.7,-16c-9.3,-2.7 -18.7,1.3 -24,9.3l-42.7,74.7c-5.3,8 -2.7,18.7 4,25.3l40,36c8,8 13.3,18.7 13.3,29.3l0,37.3c0,10.7 -4,22.7 -13.3,29.3l-40,36c-6.7,6.7 -9.3,16 -4,25.3l42.9,74.8c5.3,8 14.7,12 24,9.3l50.7,-16c10.7,-4 22.7,-2.7 32,4l32,18.7c9.3,5.3 17.3,14.7 18.7,26.7l8,34.7l0,13.3c0,10.7 9.3,20 20,20l93.3,0c10.7,0 20,-9.3 20,-20l0,-13.3l8,-34.7c2.7,-10.7 9.3,-20 18.7,-26.7l32,-18.7c9.3,-5.3 21.3,-6.7 32,-4l50.7,16c9.3,2.7 18.7,-1.3 24,-9.3l42.7,-74.7c5.3,-8 2.7,-18.7 -4,-25.3l-38.8,-36z" id="SVGID_21_"/>
        </defs>
        <clipPath id="SVGID_22_">
         <use id="svg_54" xlink:href="#SVGID_21_"/>
        </clipPath>
        <linearGradient y2="0.973416" x2="0.499955" y1="0.076505" x1="0.499955" id="SVGID_23_">
         <stop stop-color="#BF360C" stop-opacity="0.2" offset="0"/>
         <stop stop-color="#BF360C" stop-opacity="0.02" offset="1"/>
        </linearGradient>
        <polygon id="svg_55" points="413.3,450.7 546.7,584 546.7,440 413.3,440       " fill="url(#SVGID_23_)" clip-path="url(#SVGID_22_)"/>
       </g>
      </g>
     </g>
     <g id="svg_56">
      <g id="svg_57">
       <g id="svg_58">
        <defs>
         <path d="m712,368c-8,-8 -13.3,-18.7 -13.3,-29.3l0,-37.3c0,-10.7 5.3,-22.7 13.3,-29.3l40,-36c6.7,-6.7 9.3,-16 4,-25.3l-42.7,-74.8c-5.3,-8 -14.7,-12 -24,-9.3l-50.7,16c-10.7,4 -22.7,2.7 -32,-4l-32,-18.7c-9.3,-5.3 -17.3,-14.7 -18.7,-26.7l-12,-52c-1.3,-9.3 -9.3,-16 -20,-16l-86.7,0c-9.3,0 -17.3,6.7 -20,16l-12,52c-2.7,10.7 -9.3,21.3 -18.7,26.7l-32,18.7c-9.3,5.3 -21.3,6.7 -32,4l-50.7,-16c-9.3,-2.7 -18.7,1.3 -24,9.3l-42.7,74.7c-5.3,8 -2.7,18.7 4,25.3l40,36c8,8 13.3,18.7 13.3,29.3l0,37.3c0,10.7 -4,22.7 -13.3,29.3l-40,36c-6.7,6.7 -9.3,16 -4,25.3l42.9,74.8c5.3,8 14.7,12 24,9.3l50.7,-16c10.7,-4 22.7,-2.7 32,4l32,18.7c9.3,5.3 17.3,14.7 18.7,26.7l8,34.7l0,13.3c0,10.7 9.3,20 20,20l93.3,0c10.7,0 20,-9.3 20,-20l0,-13.3l8,-34.7c2.7,-10.7 9.3,-20 18.7,-26.7l32,-18.7c9.3,-5.3 21.3,-6.7 32,-4l50.7,16c9.3,2.7 18.7,-1.3 24,-9.3l42.7,-74.7c5.3,-8 2.7,-18.7 -4,-25.3l-38.8,-36z" id="SVGID_24_"/>
        </defs>
        <clipPath id="SVGID_25_">
         <use id="svg_59" xlink:href="#SVGID_24_"/>
        </clipPath>
        <g id="svg_60" clip-path="url(#SVGID_25_)">
         <g id="svg_61">
          <path id="svg_62" d="m546.7,189.3l0,130.7l-66.7,26.7l-66.7,-26.7l0,-130.7c-48,24 -80,73.3 -80,130.7c0,81.3 65.3,146.7 146.7,146.7s146.7,-65.4 146.7,-146.7c0,-57.3 -32,-106.7 -80,-130.7z" fill="#FFCD40"/>
         </g>
        </g>
       </g>
      </g>
     </g>
     <g id="svg_63">
      <g id="svg_64">
       <g id="svg_65">
        <defs>
         <path d="m712,368c-8,-8 -13.3,-18.7 -13.3,-29.3l0,-37.3c0,-10.7 5.3,-22.7 13.3,-29.3l40,-36c6.7,-6.7 9.3,-16 4,-25.3l-42.7,-74.8c-5.3,-8 -14.7,-12 -24,-9.3l-50.7,16c-10.7,4 -22.7,2.7 -32,-4l-32,-18.7c-9.3,-5.3 -17.3,-14.7 -18.7,-26.7l-12,-52c-1.3,-9.3 -9.3,-16 -20,-16l-86.7,0c-9.3,0 -17.3,6.7 -20,16l-12,52c-2.7,10.7 -9.3,21.3 -18.7,26.7l-32,18.7c-9.3,5.3 -21.3,6.7 -32,4l-50.7,-16c-9.3,-2.7 -18.7,1.3 -24,9.3l-42.7,74.7c-5.3,8 -2.7,18.7 4,25.3l40,36c8,8 13.3,18.7 13.3,29.3l0,37.3c0,10.7 -4,22.7 -13.3,29.3l-40,36c-6.7,6.7 -9.3,16 -4,25.3l42.9,74.8c5.3,8 14.7,12 24,9.3l50.7,-16c10.7,-4 22.7,-2.7 32,4l32,18.7c9.3,5.3 17.3,14.7 18.7,26.7l8,34.7l0,13.3c0,10.7 9.3,20 20,20l93.3,0c10.7,0 20,-9.3 20,-20l0,-13.3l8,-34.7c2.7,-10.7 9.3,-20 18.7,-26.7l32,-18.7c9.3,-5.3 21.3,-6.7 32,-4l50.7,16c9.3,2.7 18.7,-1.3 24,-9.3l42.7,-74.7c5.3,-8 2.7,-18.7 -4,-25.3l-38.8,-36z" id="SVGID_26_"/>
        </defs>
        <clipPath id="SVGID_27_">
         <use id="svg_66" xlink:href="#SVGID_26_"/>
        </clipPath>
        <path id="svg_67" d="m413.3,320l0,2.7l66.7,26.7l66.7,-26.7l0,-2.7l-66.7,26.7l-66.7,-26.7zm0,-130.7c-48,24 -80,73.3 -80,130.7l0,1.3c1.3,-56 33.3,-104 80,-129.3l0,-2.7zm133.4,0l0,2.7c46.7,24 78.7,72 80,129.3l0,-1.3c0,-57.3 -32,-106.7 -80,-130.7z" fill-opacity="0.2" fill="#FFFFFF" clip-path="url(#SVGID_27_)"/>
       </g>
      </g>
     </g>
     <g id="svg_68">
      <g id="svg_69">
       <g id="svg_70">
        <defs>
         <path d="m712,368c-8,-8 -13.3,-18.7 -13.3,-29.3l0,-37.3c0,-10.7 5.3,-22.7 13.3,-29.3l40,-36c6.7,-6.7 9.3,-16 4,-25.3l-42.7,-74.8c-5.3,-8 -14.7,-12 -24,-9.3l-50.7,16c-10.7,4 -22.7,2.7 -32,-4l-32,-18.7c-9.3,-5.3 -17.3,-14.7 -18.7,-26.7l-12,-52c-1.3,-9.3 -9.3,-16 -20,-16l-86.7,0c-9.3,0 -17.3,6.7 -20,16l-12,52c-2.7,10.7 -9.3,21.3 -18.7,26.7l-32,18.7c-9.3,5.3 -21.3,6.7 -32,4l-50.7,-16c-9.3,-2.7 -18.7,1.3 -24,9.3l-42.7,74.7c-5.3,8 -2.7,18.7 4,25.3l40,36c8,8 13.3,18.7 13.3,29.3l0,37.3c0,10.7 -4,22.7 -13.3,29.3l-40,36c-6.7,6.7 -9.3,16 -4,25.3l42.9,74.8c5.3,8 14.7,12 24,9.3l50.7,-16c10.7,-4 22.7,-2.7 32,4l32,18.7c9.3,5.3 17.3,14.7 18.7,26.7l8,34.7l0,13.3c0,10.7 9.3,20 20,20l93.3,0c10.7,0 20,-9.3 20,-20l0,-13.3l8,-34.7c2.7,-10.7 9.3,-20 18.7,-26.7l32,-18.7c9.3,-5.3 21.3,-6.7 32,-4l50.7,16c9.3,2.7 18.7,-1.3 24,-9.3l42.7,-74.7c5.3,-8 2.7,-18.7 -4,-25.3l-38.8,-36z" id="SVGID_28_"/>
        </defs>
        <clipPath id="SVGID_29_">
         <use id="svg_71" xlink:href="#SVGID_28_"/>
        </clipPath>
        <path id="svg_72" d="m546.7,450.7c-20,10.7 -42.7,16 -66.7,16s-46.7,-5.3 -66.7,-16l0,2.7c20,10.7 42.7,16 66.7,16s46.7,-5.3 66.7,-16l0,-2.7z" fill-opacity="0.1" fill="#BF360C" clip-path="url(#SVGID_29_)"/>
       </g>
      </g>
     </g>
     <g id="svg_73">
      <g id="svg_74">
       <g id="svg_75">
        <defs>
         <path d="m712,368c-8,-8 -13.3,-18.7 -13.3,-29.3l0,-37.3c0,-10.7 5.3,-22.7 13.3,-29.3l40,-36c6.7,-6.7 9.3,-16 4,-25.3l-42.7,-74.8c-5.3,-8 -14.7,-12 -24,-9.3l-50.7,16c-10.7,4 -22.7,2.7 -32,-4l-32,-18.7c-9.3,-5.3 -17.3,-14.7 -18.7,-26.7l-12,-52c-1.3,-9.3 -9.3,-16 -20,-16l-86.7,0c-9.3,0 -17.3,6.7 -20,16l-12,52c-2.7,10.7 -9.3,21.3 -18.7,26.7l-32,18.7c-9.3,5.3 -21.3,6.7 -32,4l-50.7,-16c-9.3,-2.7 -18.7,1.3 -24,9.3l-42.7,74.7c-5.3,8 -2.7,18.7 4,25.3l40,36c8,8 13.3,18.7 13.3,29.3l0,37.3c0,10.7 -4,22.7 -13.3,29.3l-40,36c-6.7,6.7 -9.3,16 -4,25.3l42.9,74.8c5.3,8 14.7,12 24,9.3l50.7,-16c10.7,-4 22.7,-2.7 32,4l32,18.7c9.3,5.3 17.3,14.7 18.7,26.7l8,34.7l0,13.3c0,10.7 9.3,20 20,20l93.3,0c10.7,0 20,-9.3 20,-20l0,-13.3l8,-34.7c2.7,-10.7 9.3,-20 18.7,-26.7l32,-18.7c9.3,-5.3 21.3,-6.7 32,-4l50.7,16c9.3,2.7 18.7,-1.3 24,-9.3l42.7,-74.7c5.3,-8 2.7,-18.7 -4,-25.3l-38.8,-36z" id="SVGID_30_"/>
        </defs>
        <clipPath id="SVGID_31_">
         <use id="svg_76" xlink:href="#SVGID_30_"/>
        </clipPath>
        <path id="svg_77" d="m526.7,610.7l-93.3,0c-10.7,0 -20,-9.3 -20,-20l0,2.7c0,10.7 9.3,20 20,20l93.3,0c10.7,0 20,-9.3 20,-20l0,-2.7c0,10.6 -9.4,20 -20,20z" fill-opacity="0.2" fill="#BF360C" clip-path="url(#SVGID_31_)"/>
       </g>
      </g>
     </g>
    </g>
    <radialGradient transform="translate(20,77.33333587646484) " gradientUnits="userSpaceOnUse" gradientTransform="matrix(177.7773 0 0 -177.7773 -15170.666 18997.9355)" r="3.3346" cy="106.2593" cx="86.8396" id="SVGID_32_">
     <stop stop-color="#FFFFFF" stop-opacity="0.1" offset="0"/>
     <stop stop-color="#FFFFFF" stop-opacity="0" offset="1"/>
    </radialGradient>
    <path id="svg_78" d="m732,445.333336c-8,-8 -13.3,-18.7 -13.3,-29.3l0,-37.3c0,-10.7 5.3,-22.7 13.3,-29.3l40,-36c6.7,-6.7 9.3,-16 4,-25.3l-42.7,-74.8c-5.3,-8 -14.7,-12 -24,-9.3l-50.7,16c-10.7,4 -22.7,2.7 -32,-4l-32,-18.7c-9.3,-5.3 -17.3,-14.7 -18.7,-26.7l-12,-52c-1.3,-9.3 -9.3,-16 -20,-16l-86.7,0c-9.3,0 -17.3,6.7 -20,16l-12,52c-2.7,10.7 -9.3,21.3 -18.7,26.7l-32,18.7c-9.3,5.3 -21.3,6.7 -32,4l-50.7,-16c-9.3,-2.7 -18.7,1.3 -24,9.3l-42.7,74.7c-5.3,8 -2.7,18.7 4,25.3l40,36c8,8 13.3,18.7 13.3,29.3l0,37.3c0,10.7 -4,22.7 -13.3,29.3l-40,36c-6.7,6.7 -9.3,16 -4,25.3l42.9,74.8c5.3,8 14.7,12 24,9.3l50.7,-16c10.7,-4 22.7,-2.7 32,4l32,18.7c9.3,5.3 17.3,14.7 18.7,26.7l8,34.7l0,13.3c0,10.7 9.3,20 20,20l93.3,0c10.7,0 20,-9.3 20,-20l0,-13.3l8,-34.7c2.7,-10.7 9.3,-20 18.7,-26.7l32,-18.7c9.3,-5.3 21.3,-6.7 32,-4l50.7,16c9.3,2.7 18.7,-1.3 24,-9.3l42.7,-74.7c5.3,-8 2.7,-18.7 -4,-25.3l-38.8,-36z" fill="url(#SVGID_32_)"/>
   </g>
   <rect y="77.333336" id="svg_79" height="640" width="640" fill="none" x="180"/>
  </g>
 </g>
</svg>